<?xml version="1.0" standalone="no"?><!DOCTYPE svg PUBLIC "-//W3C//DTD SVG 1.1//EN" "http://www.w3.org/Graphics/SVG/1.1/DTD/svg11.dtd"><svg xmlns:xlink="http://www.w3.org/1999/xlink" version="1.1" class="highcharts-root" style="font-family:Roboto, sans-serif;font-size:12px;" xmlns="http://www.w3.org/2000/svg" width="600" height="400" viewBox="0 0 600 400"><desc>Created with Highcharts 6.0.4</desc><defs><clipPath id="highcharts-fh14tip-22"><rect x="0" y="0" width="580" height="375" fill="none"></rect></clipPath></defs><rect fill="#ffffff" class="highcharts-background" x="0" y="0" width="600" height="400" rx="0" ry="0"></rect><rect fill="none" class="highcharts-plot-background" x="10" y="10" width="580" height="375"></rect><g class="highcharts-grid highcharts-xaxis-grid "></g><g class="highcharts-grid highcharts-yaxis-grid "></g><rect fill="none" class="highcharts-plot-border" x="10" y="10" width="580" height="375"></rect><g class="highcharts-axis highcharts-xaxis "><path fill="none" class="highcharts-axis-line" d="M 10 385 L 590 385"></path></g><g class="highcharts-axis highcharts-yaxis "><path fill="none" class="highcharts-axis-line" d="M 10 10 L 10 385"></path></g><g class="highcharts-series-group"><g class="highcharts-series highcharts-series-0 highcharts-sunburst-series highcharts-color-0 " transform="translate(10,10) scale(1 1)" clip-path="url(#highcharts-fh14tip-22)"><path fill="#71b171" d="M 290 117 A 71 71 0 1 1 289.9290000118333 117.00003549999704 M 289.96450000591665 152.5000177499985 A 35.5 35.5 0 1 0 290 152.5 " stroke="#e6e6e6" stroke-width="1" class="highcharts-point highcharts-color-0"></path><path fill="rgb(113,177,113)" d="M 290 81.5 A 106.5 106.5 0 1 1 278.19276701309144 293.84346578411373 L 282.12851134206096 258.5623105227425 A 71 71 0 1 0 290 117 Z" stroke="#e6e6e6" stroke-width="1" class="highcharts-point highcharts-color-0"></path><path fill="rgb(98,162,98)" d="M 278.0869294685639 293.83160563136624 A 106.5 106.5 0 0 1 184.35834553990355 174.50589599367245 L 219.5722303599357 179.00393066244828 A 71 71 0 0 0 282.0579529790426 258.55440375424416 Z" stroke="#e6e6e6" stroke-width="1" class="highcharts-point highcharts-color-0"></path><path fill="rgb(82,146,82)" d="M 184.3718924624837 174.40026110387075 A 106.5 106.5 0 0 1 259.4757344798558 85.96804807093153 L 269.65048965323723 119.97869871395436 A 71 71 0 0 0 219.5812616416558 178.9335074025805 Z" stroke="#e6e6e6" stroke-width="1" class="highcharts-point highcharts-color-0"></path><path fill="rgb(66,130,66)" d="M 259.5777816769111 85.93757482647047 A 106.5 106.5 0 0 1 274.56475623968186 82.62446560012349 L 279.70983749312126 117.74964373341565 A 71 71 0 0 0 269.7185211179407 119.95838321764698 Z" stroke="#e6e6e6" stroke-width="1" class="highcharts-point highcharts-color-0"></path><path fill="rgb(50,114,50)" d="M 274.67013947414046 82.6090830466985 A 106.5 106.5 0 0 1 276.52561872710135 82.35582813371785 L 281.01707915140094 117.57055208914524 A 71 71 0 0 0 279.78009298276027 117.739388697799 Z" stroke="#e6e6e6" stroke-width="1" class="highcharts-point highcharts-color-0"></path><path fill="rgb(34,98,34)" d="M 276.6312696185504 82.34240657677222 A 106.5 106.5 0 0 1 277.8786597885121 82.19204608595172 L 281.91910652567475 117.46136405730114 A 71 71 0 0 0 281.0875130790336 117.56160438451482 Z" stroke="#e6e6e6" stroke-width="1" class="highcharts-point highcharts-color-0"></path><path fill="rgb(18,82,18)" d="M 277.98447378546115 82.17997765173298 A 106.5 106.5 0 0 1 277.9728607944796 82.18129691528517 L 281.98190719631975 117.45419794352345 A 71 71 0 0 0 281.98964919030743 117.45331843448866 Z" stroke="#e6e6e6" stroke-width="1" class="highcharts-point highcharts-color-0"></path><path fill="rgb(2,66,2)" d="M 278.078685493497 82.1693226874313 A 106.5 106.5 0 0 1 278.04116248868183 82.1735562093392 L 282.0274416591212 117.4490374728928 A 71 71 0 0 0 282.05245699566467 117.44621512495421 Z" stroke="#e6e6e6" stroke-width="1" class="highcharts-point highcharts-color-0"></path><path fill="rgb(113,177,113)" d="M 290 46 A 142 142 0 0 1 356.3859287317365 313.52652495160055 L 339.7894465488024 282.1448937137004 A 106.5 106.5 0 0 0 290 81.5 Z" stroke="#e6e6e6" stroke-width="1" class="highcharts-point highcharts-color-0"></path><path fill="rgb(98,162,98)" d="M 274.1159059580852 329.1088075084883 A 142 142 0 0 1 149.06190701334552 170.66639260612095 L 184.29643026000915 174.99979445459073 A 106.5 106.5 0 0 0 278.0869294685639 293.83160563136624 Z" stroke="#e6e6e6" stroke-width="1" class="highcharts-point highcharts-color-0"></path><path fill="rgb(82,146,82)" d="M 149.1625232833116 169.867014805161 A 142 142 0 0 1 212.28366417197782 69.15484382834077 L 231.71274812898335 98.86613287125557 A 106.5 106.5 0 0 0 184.3718924624837 174.40026110387075 Z" stroke="#e6e6e6" stroke-width="1" class="highcharts-point highcharts-color-0"></path><path fill="rgb(138,202,138)" d="M 356.2603690347444 313.5928481060107 A 142 142 0 0 1 288.21893694397187 329.98882989302524 L 288.66420270797886 294.49162241976893 A 106.5 106.5 0 0 0 339.6952767760583 282.1946360795081 Z" stroke="#e6e6e6" stroke-width="1" class="highcharts-point highcharts-color-0"></path><path fill="rgb(145,209,145)" d="M 212.40254816650668 69.07718692803859 A 142 142 0 0 1 249.29492370647614 51.95920919099888 L 259.4711927798571 85.96940689324917 A 106.5 106.5 0 0 0 231.80191112488 98.80789019602894 Z" stroke="#e6e6e6" stroke-width="1" class="highcharts-point highcharts-color-0"></path><path fill="rgb(66,130,66)" d="M 249.43704223588148 51.916766435293965 A 142 142 0 0 1 269.4196749862425 47.499287466831305 L 274.56475623968186 82.62446560012349 A 106.5 106.5 0 0 0 259.5777816769111 85.93757482647047 Z" stroke="#e6e6e6" stroke-width="1" class="highcharts-point highcharts-color-0"></path><path fill="rgb(164,228,164)" d="M 288.07694902827507 329.98697783585703 A 142 142 0 0 1 279.5057337030631 329.6116886944329 L 282.1293002772973 294.20876652082467 A 106.5 106.5 0 0 0 288.5577117712063 294.4902333768928 Z" stroke="#e6e6e6" stroke-width="1" class="highcharts-point highcharts-color-0"></path><path fill="rgb(189,253,189)" d="M 279.36412728510334 329.6011236240465 A 142 142 0 0 1 274.76281202356694 329.1801264433874 L 278.5721090176752 293.8850948325405 A 106.5 106.5 0 0 0 282.0230954638275 294.2008427180349 Z" stroke="#e6e6e6" stroke-width="1" class="highcharts-point highcharts-color-0"></path><path fill="rgb(34,98,34)" d="M 272.1750261580672 47.123208769029645 A 142 142 0 0 1 273.83821305134944 46.92272811460228 L 277.8786597885121 82.19204608595172 A 106.5 106.5 0 0 0 276.6312696185504 82.34240657677222 Z" stroke="#e6e6e6" stroke-width="1" class="highcharts-point highcharts-color-0"></path><path fill="rgb(161,225,161)" d="M 149.0793110868911 170.52546320342697 A 142 142 0 0 1 149.1444607198714 170.0078613248966 L 184.35834553990355 174.50589599367245 A 106.5 106.5 0 0 0 184.30948331516834 174.89409740257022 Z" stroke="#e6e6e6" stroke-width="1" class="highcharts-point highcharts-color-0"></path><path fill="rgb(215,255,215)" d="M 274.6216395392469 329.1648186678931 A 142 142 0 0 1 274.2570226841218 329.124621045485 L 278.1927670130914 293.84346578411373 A 106.5 106.5 0 0 0 278.4662296544352 293.8736140009198 Z" stroke="#e6e6e6" stroke-width="1" class="highcharts-point highcharts-color-0"></path><path fill="rgb(2,66,2)" d="M 274.10491399132934 46.892430249908415 A 142 142 0 0 1 274.05488331824245 46.898074945785595 L 278.04116248868183 82.1735562093392 A 106.5 106.5 0 0 0 278.078685493497 82.1693226874313 Z" stroke="#e6e6e6" stroke-width="1" class="highcharts-point highcharts-color-0"></path><path fill="rgb(113,177,113)" d="M 290 10.5 A 177.5 177.5 0 0 1 460.60094074179875 138.99419403771356 L 426.480752593439 148.79535523017086 A 142 142 0 0 0 290 46 Z" stroke="#e6e6e6" stroke-width="1" class="highcharts-point highcharts-color-0"></path><path fill="rgb(82,146,82)" d="M 113.95315410413949 165.33376850645124 A 177.5 177.5 0 0 1 162.04550146909128 64.98009792840969 L 187.63640117527302 89.58407834272775 A 142 142 0 0 0 149.1625232833116 169.867014805161 Z" stroke="#e6e6e6" stroke-width="1" class="highcharts-point highcharts-color-0"></path><path fill="rgb(98,162,98)" d="M 270.1448824476065 364.38600938561035 A 177.5 177.5 0 0 1 172.78011336711535 321.2882146994762 L 196.2240906936923 294.63057175958096 A 142 142 0 0 0 274.1159059580852 329.1088075084883 Z" stroke="#e6e6e6" stroke-width="1" class="highcharts-point highcharts-color-0"></path><path fill="rgb(98,162,98)" d="M 172.646883784569 321.1709281882782 A 177.5 177.5 0 0 1 119.2197072405113 236.37707726788932 L 153.37576579240906 226.70166181431148 A 142 142 0 0 0 196.1175070276552 294.53674255062253 Z" stroke="#e6e6e6" stroke-width="1" class="highcharts-point highcharts-color-0"></path><path fill="rgb(113,177,113)" d="M 460.64986123913013 139.1648194529228 A 177.5 177.5 0 0 1 466.6699905609366 205.14539107744622 L 431.33599244874927 201.71631286195696 A 142 142 0 0 0 426.51988899130413 148.93185556233826 Z" stroke="#e6e6e6" stroke-width="1" class="highcharts-point highcharts-color-0"></path><path fill="rgb(113,177,113)" d="M 466.6527568377288 205.32205246586733 A 177.5 177.5 0 0 1 450.58461016629957 263.6229659411583 L 418.4676881330397 248.49837275292666 A 142 142 0 0 0 431.322205470183 201.85764197269387 Z" stroke="#e6e6e6" stroke-width="1" class="highcharts-point highcharts-color-0"></path><path fill="rgb(138,202,138)" d="M 372.8254612934305 344.99106013251344 A 177.5 177.5 0 0 1 324.9085228556937 362.0334595186613 L 317.926818284555 327.22676761492903 A 142 142 0 0 0 356.2603690347444 313.5928481060107 Z" stroke="#e6e6e6" stroke-width="1" class="highcharts-point highcharts-color-0"></path><path fill="rgb(145,209,145)" d="M 193.00318520813332 39.34648366004822 A 177.5 177.5 0 0 1 238.04859387456588 18.272861917752806 L 248.4388750996527 52.218289534202256 A 142 142 0 0 0 212.40254816650668 69.07718692803859 Z" stroke="#e6e6e6" stroke-width="1" class="highcharts-point highcharts-color-0"></path><path fill="rgb(98,162,98)" d="M 119.17141556144554 236.20627281505662 A 177.5 177.5 0 0 1 112.65829254120621 195.4945844180718 L 148.12663403296497 193.99566753445743 A 142 142 0 0 0 153.33713244915643 226.5650182520453 Z" stroke="#e6e6e6" stroke-width="1" class="highcharts-point highcharts-color-0"></path><path fill="rgb(113,177,113)" d="M 450.5089069206639 263.7835127130807 A 177.5 177.5 0 0 1 430.6887291466359 296.2262975949215 L 402.55098331730875 274.5810380759372 A 142 142 0 0 0 418.4071255365311 248.62681017046458 Z" stroke="#e6e6e6" stroke-width="1" class="highcharts-point highcharts-color-0"></path><path fill="rgb(113,177,113)" d="M 430.58043252272 296.36693218747575 A 177.5 177.5 0 0 1 404.30578832513885 323.79556971922375 L 381.4446306601111 296.636455775379 A 142 142 0 0 0 402.464346018176 274.6935457499806 Z" stroke="#e6e6e6" stroke-width="1" class="highcharts-point highcharts-color-0"></path><path fill="rgb(138,202,138)" d="M 324.7344719709207 362.06828101897634 A 177.5 177.5 0 0 1 293.7781073154985 365.4597867267753 L 293.0224858523988 329.96782938142024 A 142 142 0 0 0 317.78757757673657 327.25462481518105 Z" stroke="#e6e6e6" stroke-width="1" class="highcharts-point highcharts-color-0"></path><path fill="rgb(113,177,113)" d="M 404.1699356251628 323.90980759071874 A 177.5 177.5 0 0 1 379.8141926318235 341.10016591073213 L 361.85135410545877 310.4801327285857 A 142 142 0 0 0 381.33594850013026 296.72784607257495 Z" stroke="#e6e6e6" stroke-width="1" class="highcharts-point highcharts-color-0"></path><path fill="rgb(66,130,66)" d="M 239.29630279485184 17.895958044117435 A 177.5 177.5 0 0 1 264.26677615406527 12.37525461799234 L 269.4134209232522 47.50020369439386 A 142 142 0 0 0 249.43704223588148 51.916766435293965 Z" stroke="#e6e6e6" stroke-width="1" class="highcharts-point highcharts-color-0"></path><path fill="rgb(82,146,82)" d="M 162.16858532790346 64.85220496115043 A 177.5 177.5 0 0 1 180.67449546188692 48.16372410033577 L 202.53959636950952 76.1309792802686 A 142 142 0 0 0 187.73486826232278 89.48176396892035 Z" stroke="#e6e6e6" stroke-width="1" class="highcharts-point highcharts-color-0"></path><path fill="rgb(164,228,164)" d="M 287.5961862853439 365.4837222948213 A 177.5 177.5 0 0 1 276.8821671288289 365.01461086804113 L 279.5057337030631 329.6116886944329 A 142 142 0 0 0 288.07694902827507 329.98697783585703 Z" stroke="#e6e6e6" stroke-width="1" class="highcharts-point highcharts-color-0"></path><path fill="rgb(98,162,98)" d="M 112.6508866288836 195.3172389928781 A 177.5 177.5 0 0 1 112.51264503588664 185.8813145955986 L 148.01011602870932 186.30505167647888 A 142 142 0 0 0 148.12070930310688 193.85379119430246 Z" stroke="#e6e6e6" stroke-width="1" class="highcharts-point highcharts-color-0"></path><path fill="rgb(98,162,98)" d="M 112.51485246460803 185.70382832955835 A 177.5 177.5 0 0 1 112.81904105698658 177.36243505146984 L 148.25523284558926 179.48994804117586 A 142 142 0 0 0 148.01188197168642 186.16306266364668 Z" stroke="#e6e6e6" stroke-width="1" class="highcharts-point highcharts-color-0"></path><path fill="rgb(113,177,113)" d="M 379.66104758433687 341.18990353831833 A 177.5 177.5 0 0 1 373.6207957527456 344.5688746771771 L 356.8966366021965 313.2550997417417 A 142 142 0 0 0 361.7288380674695 310.5519228306547 Z" stroke="#e6e6e6" stroke-width="1" class="highcharts-point highcharts-color-0"></path><path fill="rgb(98,162,98)" d="M 112.82976721063429 177.18525944083905 A 177.5 177.5 0 0 1 113.0973877948799 173.4495431341522 L 148.47791023590392 176.35963450732174 A 142 142 0 0 0 148.26381376850742 179.34820755267123 Z" stroke="#e6e6e6" stroke-width="1" class="highcharts-point highcharts-color-0"></path><path fill="rgb(138,202,138)" d="M 293.60064566929486 365.46347610357515 A 177.5 177.5 0 0 1 289.8792362731345 365.49995891864955 L 289.9033890185076 329.99996713491964 A 142 142 0 0 0 292.8805165354359 329.97078088286014 Z" stroke="#e6e6e6" stroke-width="1" class="highcharts-point highcharts-color-0"></path><path fill="rgb(34,98,34)" d="M 267.718782697584 11.904010961287042 A 177.5 177.5 0 0 1 269.79776631418684 11.653410143252842 L 273.83821305134944 46.92272811460228 A 142 142 0 0 0 272.1750261580672 47.123208769029645 Z" stroke="#e6e6e6" stroke-width="1" class="highcharts-point highcharts-color-0"></path><path fill="rgb(138,202,138)" d="M 289.7017364041811 365.49974940497077 A 177.5 177.5 0 0 1 287.7973724135682 365.4863330843124 L 288.23789793085456 329.9890664674499 A 142 142 0 0 0 289.7613891233448 329.9997995239766 Z" stroke="#e6e6e6" stroke-width="1" class="highcharts-point highcharts-color-0"></path><path fill="rgb(145,209,145)" d="M 238.21834696006124 18.220995383847907 A 177.5 177.5 0 0 1 239.10351593556217 17.953541907282215 L 249.28281274844974 51.96283352582577 A 142 142 0 0 0 248.57467756804897 52.17679630707832 Z" stroke="#e6e6e6" stroke-width="1" class="highcharts-point highcharts-color-0"></path><path fill="rgb(161,225,161)" d="M 113.84913885861386 166.1568290042837 A 177.5 177.5 0 0 1 113.90664995013162 165.69793578579512 L 149.1253199601053 170.1583486286361 A 142 142 0 0 0 149.0793110868911 170.52546320342697 Z" stroke="#e6e6e6" stroke-width="1" class="highcharts-point highcharts-color-0"></path><path fill="rgb(215,255,215)" d="M 270.77704942405865 364.4560233348664 A 177.5 177.5 0 0 1 270.3369830713904 364.40752751871224 L 274.2695864571123 329.12602201496975 A 142 142 0 0 0 274.6216395392469 329.1648186678931 Z" stroke="#e6e6e6" stroke-width="1" class="highcharts-point highcharts-color-0"></path><path fill="rgb(113,177,113)" d="M 373.4641850937689 344.6524171745623 A 177.5 177.5 0 0 1 373.1011223699051 344.8453169873492 L 356.4808978959241 313.4762535898794 A 142 142 0 0 0 356.7713480750151 313.3219337396498 Z" stroke="#e6e6e6" stroke-width="1" class="highcharts-point highcharts-color-0"></path><path fill="rgb(82,146,82)" d="M 180.8143863772283 48.05446853215065 A 177.5 177.5 0 0 1 180.8457512816343 48.03000326238069 L 202.67660102530743 76.02400260990454 A 142 142 0 0 0 202.65150910178266 76.04357482572053 Z" stroke="#e6e6e6" stroke-width="1" class="highcharts-point highcharts-color-0"></path><path fill="rgb(113,177,113)" d="M 372.94423552850094 344.92833967321695 A 177.5 177.5 0 0 1 372.9824109146706 344.90815618950074 L 356.3859287317365 313.5265249516006 A 142 142 0 0 0 356.35538842280073 313.5426717385736 Z" stroke="#e6e6e6" stroke-width="1" class="highcharts-point highcharts-color-0"></path><path fill="rgb(2,66,2)" d="M 270.1311424891617 11.615537812385526 A 177.5 177.5 0 0 1 270.06860414780306 11.622593682232008 L 274.05488331824245 46.898074945785595 A 142 142 0 0 0 274.10491399132934 46.892430249908415 Z" stroke="#e6e6e6" stroke-width="1" class="highcharts-point highcharts-color-0"></path><path fill="rgb(161,225,161)" d="M 113.92904005729648 165.52185361612536 A 177.5 177.5 0 0 1 113.91112075810355 165.6626633787103 L 149.12889660648284 170.13013070296824 A 142 142 0 0 0 149.14323204583718 170.0174828929003 Z" stroke="#e6e6e6" stroke-width="1" class="highcharts-point highcharts-color-0"></path><path fill="rgb(138,202,138)" d="M 287.6198872113787 365.48404171393395 A 177.5 177.5 0 0 1 287.77367117996477 365.4860373662815 L 288.2189369439718 329.98882989302524 A 142 142 0 0 0 288.09590976910295 329.9872333711471 Z" stroke="#e6e6e6" stroke-width="1" class="highcharts-point highcharts-color-0"></path><path fill="rgb(98,162,98)" d="M 113.1120267006194 173.2726478266587 A 177.5 177.5 0 0 1 113.09803565205081 173.44166871386315 L 148.47842852164064 176.3533349710905 A 142 142 0 0 0 148.48962136049553 176.21811826132694 Z" stroke="#e6e6e6" stroke-width="1" class="highcharts-point highcharts-color-0"></path><path fill="rgb(66,130,66)" d="M 264.44241373678744 12.34960921080065 A 177.5 177.5 0 0 1 264.2745937328031 12.374109333539138 L 269.4196749862425 47.499287466831305 A 142 142 0 0 0 269.55393098942994 47.479687368640526 Z" stroke="#e6e6e6" stroke-width="1" class="highcharts-point highcharts-color-0"></path><path fill="#71b171" d="M 290 152.5 A 35.5 35.5 0 1 1 289.96450000591665 152.5000177499985 M 290 188 A 0 0 0 1 0 290 188 " stroke="#e6e6e6" stroke-width="1" class="highcharts-point highcharts-color-0"></path></g><g class="highcharts-markers highcharts-series-0 highcharts-sunburst-series highcharts-color-0 " transform="translate(10,10) scale(1 1)" clip-path="none"></g></g><text x="300" text-anchor="middle" class="highcharts-title" style="color:#666;font-size:12px;fill:#666;text-transform:uppercase;" y="19"></text><text x="300" text-anchor="middle" class="highcharts-subtitle" style="color:#666;font-size:12px;fill:#666;" y="24"></text><g class="highcharts-data-labels highcharts-series-0 highcharts-sunburst-series highcharts-color-0 " transform="translate(10,10) scale(1 1)" opacity="1"><text x="289.9999360045941" y="241" class="highcharts-data-label highcharts-data-label-color-0 " r="0" padding="5" transform="translate(0,0) rotate(0.001 289.9999360045941 241)" style="font-size:11px;font-weight:bold;color:#666;cursor:pointer;fill:#666;" text-anchor="middle"><tspan x="289.9999360045941" y="241" class="highcharts-text-outline" fill="#FFFFFF" stroke="#FFFFFF" stroke-width="2px" stroke-linejoin="round" style="">Ani…</tspan><tspan x="289.9999360045941" y="241">Ani…</tspan><title>Animalia</title></text><text x="378.40524290497206" y="192" class="highcharts-data-label highcharts-data-label-color-0 " r="0" padding="5" transform="translate(0,0) rotate(3.211268503660876 378.40524290497206 192)" style="font-size:11px;font-weight:bold;color:#666;cursor:pointer;fill:#666;" text-anchor="middle"><tspan x="378.40524290497206" y="192" class="highcharts-text-outline" fill="#FFFFFF" stroke="#FFFFFF" stroke-width="2px" stroke-linejoin="round" style="">Arthr…</tspan><tspan x="378.40524290497206" y="192">Arthr…</tspan><title>Arthropoda</title></text><text x="222.4425753046483" y="242" class="highcharts-data-label highcharts-data-label-color-0 " r="0" padding="5" transform="translate(0,0) rotate(-38.120463747170646 222.4425753046483 242)" style="font-size:11px;font-weight:bold;color:#666;cursor:pointer;fill:#666;" text-anchor="middle"><tspan x="222.4425753046483" y="242" class="highcharts-text-outline" fill="#FFFFFF" stroke="#FFFFFF" stroke-width="2px" stroke-linejoin="round" style="">Anne…</tspan><tspan x="222.4425753046483" y="242">Anne…</tspan><title>Annelida</title></text><text x="220.0076985918057" y="130" class="highcharts-data-label highcharts-data-label-color-0 " r="0" padding="5" transform="translate(0,0) rotate(40.3692762186115 220.0076985918057 130)" style="font-size:11px;font-weight:bold;color:#666;cursor:pointer;fill:#666;" text-anchor="middle"><tspan x="220.0076985918057" y="130" class="highcharts-text-outline" fill="#FFFFFF" stroke="#FFFFFF" stroke-width="2px" stroke-linejoin="round" style="">Moll…</tspan><tspan x="220.0076985918057" y="130">Moll…</tspan><title>Mollusca</title></text><text x="411.4888556043748" y="158" class="highcharts-data-label highcharts-data-label-color-0 " r="0" padding="5" transform="translate(0,0) rotate(-13.907633125405141 411.4888556043748 158)" style="font-size:11px;font-weight:bold;color:#666;cursor:pointer;fill:#666;" text-anchor="middle"><tspan x="411.4888556043748" y="158" class="highcharts-text-outline" fill="#FFFFFF" stroke="#FFFFFF" stroke-width="2px" stroke-linejoin="round" style="">Insec…</tspan><tspan x="411.4888556043748" y="158">Insec…</tspan><title>Insecta</title></text><text x="194.70045481816095" y="264" class="highcharts-data-label highcharts-data-label-color-0 " r="0" padding="5" transform="translate(0,0) rotate(-38.254359584710386 194.70045481816095 264)" style="font-size:11px;font-weight:bold;color:#666;cursor:pointer;fill:#666;" text-anchor="middle"><tspan x="194.70045481816095" y="264" class="highcharts-text-outline" fill="#FFFFFF" stroke="#FFFFFF" stroke-width="2px" stroke-linejoin="round" style="">Clitel…</tspan><tspan x="194.70045481816095" y="264">Clitel…</tspan><title>Clitellata</title></text><text x="182.8032186667646" y="121" class="highcharts-data-label highcharts-data-label-color-0 " r="0" padding="5" transform="translate(0,0) rotate(32.1059902447318 182.8032186667646 121)" style="font-size:11px;font-weight:bold;color:#666;cursor:pointer;fill:#666;" text-anchor="middle"><tspan x="182.8032186667646" y="121" class="highcharts-text-outline" fill="#FFFFFF" stroke="#FFFFFF" stroke-width="2px" stroke-linejoin="round" style="">Gastr…</tspan><tspan x="182.8032186667646" y="121">Gastr…</tspan><title>Gastropoda</title></text><text x="315.48196567973105" y="308" class="highcharts-data-label highcharts-data-label-color-0 " r="0" padding="5" transform="translate(0,0) rotate(76.48034600384685 315.48196567973105 308)" style="font-size:11px;font-weight:bold;color:#666;cursor:pointer;fill:#666;" text-anchor="middle"><tspan x="315.48196567973105" y="308" class="highcharts-text-outline" fill="#FFFFFF" stroke="#FFFFFF" stroke-width="2px" stroke-linejoin="round" style="">Mala…</tspan><tspan x="315.48196567973105" y="308">Mala…</tspan><title>Malacostraca</title></text><text x="234.4331499129016" y="75" class="highcharts-data-label highcharts-data-label-color-0 " r="0" padding="5" transform="translate(0,0) rotate(65.13745576655364 234.4331499129016 75)" style="font-size:11px;font-weight:bold;color:#666;cursor:pointer;fill:#666;" text-anchor="middle"><tspan x="234.4331499129016" y="75" class="highcharts-text-outline" fill="#FFFFFF" stroke="#FFFFFF" stroke-width="2px" stroke-linejoin="round" style="">Bival…</tspan><tspan x="234.4331499129016" y="75">Bival…</tspan><title>Bivalvia</title></text><text x="389.10150575442714" y="60" class="highcharts-data-label highcharts-data-label-color-0 " r="0" padding="5" transform="translate(0,0) rotate(-52.98481451175839 389.10150575442714 60)" style="font-size:11px;font-weight:bold;color:#666;cursor:pointer;fill:#666;" text-anchor="middle"><tspan x="389.10150575442714" y="60" class="highcharts-text-outline" fill="#FFFFFF" stroke="#FFFFFF" stroke-width="2px" stroke-linejoin="round" style="">Dipte…</tspan><tspan x="389.10150575442714" y="60">Dipte…</tspan><title>Diptera</title></text><text x="144.3866425518381" y="118" class="highcharts-data-label highcharts-data-label-color-0 " r="0" padding="5" transform="translate(0,0) rotate(25.63372049775245 144.3866425518381 118)" style="font-size:11px;font-weight:bold;color:#666;cursor:pointer;fill:#666;" text-anchor="middle"><tspan x="144.3866425518381" y="118" class="highcharts-text-outline" fill="#FFFFFF" stroke="#FFFFFF" stroke-width="2px" stroke-linejoin="round" style="">Hygr…</tspan><tspan x="144.3866425518381" y="118">Hygr…</tspan><title>Hygrophila</title></text><text x="228.61835540165885" y="334" class="highcharts-data-label highcharts-data-label-color-0 " r="0" padding="5" transform="translate(0,0) rotate(-66.09512980457585 228.61835540165885 334)" style="font-size:11px;font-weight:bold;color:#666;cursor:pointer;fill:#666;" text-anchor="middle"><tspan x="228.61835540165885" y="334" class="highcharts-text-outline" fill="#FFFFFF" stroke="#FFFFFF" stroke-width="2px" stroke-linejoin="round" style="">Hapl…</tspan><tspan x="228.61835540165885" y="334">Hapl…</tspan><title>Haplotaxida</title></text><text x="156.75248982368947" y="273" class="highcharts-data-label highcharts-data-label-color-0 " r="0" padding="5" transform="translate(0,0) rotate(-32.18569014802932 156.75248982368947 273)" style="font-size:11px;font-weight:bold;color:#666;cursor:pointer;fill:#666;" text-anchor="middle"><tspan x="156.75248982368947" y="273" class="highcharts-text-outline" fill="#FFFFFF" stroke="#FFFFFF" stroke-width="2px" stroke-linejoin="round" style="">Rhyn…</tspan><tspan x="156.75248982368947" y="273">Rhyn…</tspan><title>Rhynchobdellida</title></text><text x="449.42774929093605" y="173" class="highcharts-data-label highcharts-data-label-color-0 " r="0" padding="5" transform="translate(0,0) rotate(-5.184638109305749 449.42774929093605 173)" style="font-size:11px;font-weight:bold;color:#666;cursor:pointer;fill:#666;" text-anchor="middle"><tspan x="449.42774929093605" y="173" class="highcharts-text-outline" fill="#FFFFFF" stroke="#FFFFFF" stroke-width="2px" stroke-linejoin="round" style="">Cole…</tspan><tspan x="449.42774929093605" y="173">Cole…</tspan><title>Coleoptera</title></text><text x="443.01063719330244" y="230" class="highcharts-data-label highcharts-data-label-color-0 " r="0" padding="5" transform="translate(0,0) rotate(15.437233669489828 443.01063719330244 230)" style="font-size:11px;font-weight:bold;color:#666;cursor:pointer;fill:#666;" text-anchor="middle"><tspan x="443.01063719330244" y="230" class="highcharts-text-outline" fill="#FFFFFF" stroke="#FFFFFF" stroke-width="2px" stroke-linejoin="round" style="">Hemi…</tspan><tspan x="443.01063719330244" y="230">Hemi…</tspan><title>Hemiptera</title></text><text x="340.00193339895645" y="338" class="highcharts-data-label highcharts-data-label-color-0 " r="0" padding="5" transform="translate(0,0) rotate(70.44993252074855 340.00193339895645 338)" style="font-size:11px;font-weight:bold;color:#666;cursor:pointer;fill:#666;" text-anchor="middle"><tspan x="340.00193339895645" y="338" class="highcharts-text-outline" fill="#FFFFFF" stroke="#FFFFFF" stroke-width="2px" stroke-linejoin="round" style="">Isop…</tspan><tspan x="340.00193339895645" y="338">Isop…</tspan><title>Isopoda</title></text><text x="219.05616682954678" y="43" class="highcharts-data-label highcharts-data-label-color-0 " r="0" padding="5" transform="translate(0,0) rotate(64.95701518548819 219.05616682954678 43)" style="font-size:11px;font-weight:bold;color:#666;cursor:pointer;fill:#666;" text-anchor="middle"><tspan x="219.05616682954678" y="43" class="highcharts-text-outline" fill="#FFFFFF" stroke="#FFFFFF" stroke-width="2px" stroke-linejoin="round" style="">Vene…</tspan><tspan x="219.05616682954678" y="43">Vene…</tspan><title>Veneroida</title></text><text x="132.82073243323373" y="213" class="highcharts-data-label highcharts-data-label-color-0 " r="0" padding="5" transform="translate(0,0) rotate(-9.060603806467412 132.82073243323373 213)" style="font-size:11px;font-weight:bold;color:#666;cursor:pointer;fill:#666;" text-anchor="middle"><tspan x="132.82073243323373" y="213" class="highcharts-text-outline" fill="#FFFFFF" stroke="#FFFFFF" stroke-width="2px" stroke-linejoin="round" style="">Arhy…</tspan><tspan x="132.82073243323373" y="213">Arhy…</tspan><title>Arhynchobdellida</title></text><text x="424.3681434757071" y="271" class="highcharts-data-label highcharts-data-label-color-0 " r="0" padding="5" transform="translate(0,0) rotate(31.450538240013618 424.3681434757071 271)" style="font-size:11px;font-weight:bold;color:#666;cursor:pointer;fill:#666;" text-anchor="middle"><tspan x="424.3681434757071" y="271" class="highcharts-text-outline" fill="#FFFFFF" stroke="#FFFFFF" stroke-width="2px" stroke-linejoin="round" style="">Ephe…</tspan><tspan x="424.3681434757071" y="271">Ephe…</tspan><title>Ephemeroptera</title></text><text x="402.7679870504468" y="298" class="highcharts-data-label highcharts-data-label-color-0 " r="0" padding="5" transform="translate(0,0) rotate(43.79764725885468 402.7679870504468 298)" style="font-size:11px;font-weight:bold;color:#666;cursor:pointer;fill:#666;" text-anchor="middle"><tspan x="402.7679870504468" y="298" class="highcharts-text-outline" fill="#FFFFFF" stroke="#FFFFFF" stroke-width="2px" stroke-linejoin="round" style="">Trich…</tspan><tspan x="402.7679870504468" y="298">Trich…</tspan><title>Trichoptera</title></text><text x="303.67327142215044" y="346" class="highcharts-data-label highcharts-data-label-color-0 " r="0" padding="5" transform="translate(0,0) rotate(83.77639395130868 303.67327142215044 346)" style="font-size:11px;font-weight:bold;color:#666;cursor:pointer;fill:#666;" text-anchor="middle"><tspan x="303.67327142215044" y="346" class="highcharts-text-outline" fill="#FFFFFF" stroke="#FFFFFF" stroke-width="2px" stroke-linejoin="round" style="">Amp…</tspan><tspan x="303.67327142215044" y="346">Amp…</tspan><title>Amphipoda</title></text><text x="379.0562480273214" y="318" class="highcharts-data-label highcharts-data-label-color-0 " r="0" padding="5" transform="translate(0,0) rotate(54.814086692241496 379.0562480273214 318)" style="font-size:11px;font-weight:bold;color:#666;cursor:pointer;fill:#666;" text-anchor="middle"><tspan x="379.0562480273214" y="318" class="highcharts-text-outline" fill="#FFFFFF" stroke="#FFFFFF" stroke-width="2px" stroke-linejoin="round" style="">Odon…</tspan><tspan x="379.0562480273214" y="318">Odon…</tspan><title>Odonata</title></text><text x="252.01117773508918" y="31" class="highcharts-data-label highcharts-data-label-color-0 " r="0" padding="5" transform="translate(0,0) rotate(77.56171429178664 252.01117773508918 31)" style="font-size:11px;font-weight:bold;color:#666;cursor:pointer;fill:#666;" text-anchor="middle"><tspan x="252.01117773508918" y="31" class="highcharts-text-outline" fill="#FFFFFF" stroke="#FFFFFF" stroke-width="2px" stroke-linejoin="round" style="">Seria…</tspan><tspan x="252.01117773508918" y="31">Seria…</tspan><title>Seriata</title></text><text x="180.3506031239186" y="69" class="highcharts-data-label highcharts-data-label-color-0 " r="0" padding="5" transform="translate(0,0) rotate(47.98476137848951 180.3506031239186 69)" style="font-size:11px;font-weight:bold;color:#666;cursor:pointer;fill:#666;" text-anchor="middle"><tspan x="180.3506031239186" y="69" class="highcharts-text-outline" fill="#FFFFFF" stroke="#FFFFFF" stroke-width="2px" stroke-linejoin="round" style="">Littor…</tspan><tspan x="180.3506031239186" y="69">Littor…</tspan><title>Littorinimorpha</title></text></g><g class="highcharts-legend"><rect fill="none" class="highcharts-legend-box" rx="0" ry="0" x="0" y="0" width="8" height="8" visibility="hidden"></rect><g><g></g></g></g><g class="highcharts-axis-labels highcharts-xaxis-labels "></g><g class="highcharts-axis-labels highcharts-yaxis-labels "></g></svg>